<?xml version="1.0" standalone="no"?>
<!DOCTYPE svg PUBLIC "-//W3C//DTD SVG 20010904//EN"
 "http://www.w3.org/TR/2001/REC-SVG-20010904/DTD/svg10.dtd">
<svg version="1.0" xmlns="http://www.w3.org/2000/svg"
 width="1025.000000pt" height="1025.000000pt" viewBox="0 0 1025.000000 1025.000000"
 preserveAspectRatio="xMidYMid meet">
<metadata>
Created by potrace 1.14, written by Peter Selinger 2001-2017
</metadata>
<g transform="translate(0.000000,1025.000000) scale(0.100000,-0.100000)"
fill="#000000" stroke="none">
<path d="M290 7591 c0 -2 24 -40 53 -85 30 -44 70 -106 89 -136 54 -84 230
-380 372 -625 70 -121 143 -245 161 -275 29 -49 192 -331 242 -420 39 -68 96
-165 111 -190 9 -14 15 -27 15 -30 0 -3 12 -24 28 -47 16 -23 29 -44 29 -46 0
-2 46 -83 101 -178 56 -96 113 -194 127 -219 14 -25 55 -97 92 -160 37 -63 78
-135 92 -160 14 -25 107 -187 208 -360 175 -301 506 -874 615 -1065 28 -49 95
-164 147 -255 53 -91 104 -181 115 -200 11 -19 69 -118 128 -220 59 -102 115
-198 123 -215 9 -16 19 -33 24 -36 4 -3 47 -5 95 -4 l86 1 44 79 c24 43 62
112 85 154 22 42 71 130 108 196 37 66 86 156 110 200 23 44 51 94 60 110 10
17 129 233 265 480 136 248 250 453 254 457 3 4 18 -14 32 -40 14 -26 163
-285 329 -577 167 -291 310 -541 317 -555 7 -14 75 -133 151 -265 l138 -240
51 0 51 0 50 90 c27 49 69 126 93 170 23 44 53 97 66 117 13 21 23 39 23 41 0
2 32 62 71 133 39 71 84 152 99 179 15 28 50 91 77 140 27 50 69 126 93 170
24 44 73 134 110 200 37 66 83 149 102 185 20 36 69 126 110 200 41 74 92 167
113 205 21 39 55 101 76 138 22 38 39 70 39 72 0 2 15 30 34 62 18 32 49 87
68 123 80 148 96 177 115 210 11 19 84 151 162 293 78 142 150 272 160 290 10
18 42 77 72 132 30 55 59 107 64 117 6 9 24 42 41 75 17 32 66 121 109 198
108 195 243 441 385 700 35 64 223 404 311 562 37 68 64 124 61 126 -4 2 -315
3 -691 3 l-684 -1 -73 -165 c-71 -158 -247 -513 -524 -1055 -70 -137 -207
-407 -305 -600 -189 -372 -431 -848 -447 -879 -11 -20 -3 -31 -130 204 -23 41
-73 134 -113 205 -40 72 -84 153 -99 181 l-27 51 89 159 c49 87 108 195 132
239 24 44 54 98 66 120 12 22 31 56 41 75 11 19 80 145 155 280 74 135 148
268 163 295 15 28 64 113 107 189 44 77 88 153 98 170 28 49 140 239 228 388
45 75 82 138 82 140 0 9 -1300 2 -1308 -7 -4 -6 -19 -37 -32 -70 -68 -174
-426 -924 -441 -925 -3 0 -69 112 -147 249 -171 297 -211 373 -364 671 l-43
85 -718 0 c-394 0 -717 -3 -717 -7 0 -3 44 -73 99 -155 107 -161 191 -291 237
-365 16 -27 44 -72 63 -100 26 -42 230 -397 341 -593 9 -16 66 -115 125 -220
59 -104 118 -208 130 -230 13 -22 93 -162 178 -311 l154 -272 -141 -276 c-139
-273 -141 -276 -158 -254 -10 13 -18 26 -18 31 0 4 -11 24 -23 45 -13 20 -39
64 -57 97 -31 57 -215 382 -343 605 -33 58 -71 125 -85 150 -14 25 -60 106
-102 180 -42 74 -89 157 -104 185 -16 27 -64 112 -108 188 -44 77 -90 158
-102 181 -13 22 -60 106 -106 186 -91 160 -100 177 -188 335 -67 120 -200 394
-254 520 l-34 80 -777 0 c-427 0 -777 -2 -777 -4z"/>
<path d="M8092 7068 c-5 -7 -29 -49 -52 -93 -24 -44 -52 -95 -63 -115 -11 -19
-33 -60 -49 -90 -17 -30 -33 -59 -38 -65 -4 -5 -26 -46 -50 -90 -36 -68 -494
-902 -568 -1035 -13 -25 -37 -67 -52 -95 -15 -27 -53 -97 -85 -155 -32 -58
-70 -127 -85 -155 -15 -27 -50 -92 -79 -143 -28 -50 -51 -97 -51 -102 0 -6 -4
-10 -10 -10 -5 0 -10 -4 -10 -8 0 -5 -45 -91 -101 -191 l-100 -183 -5 -591
c-2 -326 -6 -653 -9 -727 -12 -362 -14 -490 -7 -491 4 0 644 -2 1422 -4 778
-2 1465 -6 1525 -9 61 -3 161 -8 223 -11 l112 -5 0 611 0 610 -182 -6 c-101
-3 -521 -8 -935 -10 l-752 -5 2 1462 c1 805 4 1520 7 1591 3 70 4 127 4 127
-1 0 -6 -6 -12 -12z"/>
</g>
</svg>
